<svg width="101" height="35" viewBox="0 0 101 35" fill="none" xmlns="http://www.w3.org/2000/svg">
<path fill-rule="evenodd" clip-rule="evenodd" d="M3.60559 17.4837C3.60559 9.82705 9.84975 3.59791 17.5238 3.59791C25.1988 3.59791 31.4425 9.82705 31.4425 17.4837C31.4425 25.1404 25.1988 31.37 17.5238 31.37C9.84975 31.37 3.60559 25.1404 3.60559 17.4837ZM0 17.4836C0 27.1242 7.86123 34.9671 17.5238 34.9671C27.1874 34.9671 35.0486 27.1242 35.0486 17.4836C35.0486 7.84305 27.1874 0.00012207 17.5238 0.00012207C7.86123 0.00012207 0 7.84305 0 17.4836ZM67.669 0.0222031H63.8208L52.6102 29.2868L41.3752 0.0222031H37.5022L50.926 34.9659H52.6102H54.2943L67.669 0.0222031ZM83.4758 3.62814C75.8017 3.62814 69.5575 9.85778 69.5575 17.514C69.5575 25.1707 75.8017 31.4003 83.4758 31.4003C91.1503 31.4003 97.394 25.1707 97.394 17.514C97.394 9.85778 91.1503 3.62814 83.4758 3.62814ZM83.4758 34.9981C73.8132 34.9981 65.9515 27.1546 65.9515 17.5141C65.9515 7.87396 73.8132 0.0305332 83.4758 0.0305332C93.1388 0.0305332 101 7.87396 101 17.5141C101 27.1546 93.1388 34.9981 83.4758 34.9981Z" fill="white"/>
<path fill-rule="evenodd" clip-rule="evenodd" d="M30.4106 35H35.8195V0H30.4106V35Z" fill="#EC008C"/>
</svg>
