<svg width="12" height="12" viewBox="0 0 12 12" fill="none" xmlns="http://www.w3.org/2000/svg">
<path opacity="0.5" d="M11.5545 0.0273058C11.8191 -0.087605 12.0876 0.180931 11.9727 0.445511L9.6153 5.87337C9.58022 5.95414 9.58022 6.04586 9.6153 6.12663L11.9727 11.5545C12.0876 11.8191 11.8191 12.0876 11.5545 11.9727L6.12663 9.6153C6.04586 9.58022 5.95414 9.58022 5.87337 9.6153L0.445511 11.9727C0.180932 12.0876 -0.087605 11.8191 0.0273058 11.5545L2.3847 6.12663C2.41979 6.04586 2.41979 5.95414 2.3847 5.87337L0.0273062 0.445511C-0.0876046 0.180932 0.180931 -0.087605 0.445511 0.0273058L5.87337 2.3847C5.95414 2.41979 6.04586 2.41979 6.12663 2.3847L11.5545 0.0273058Z" fill="#9195B6"/>
</svg>
