<svg xmlns="http://www.w3.org/2000/svg" width="48" height="53" viewBox="0 0 48 53" fill="none"><style>.a{fill:#6b6cf0;}</style><path d="M16.8 33.4C15.9 36.7 15.4 39.3 15.2 41.2 15.1 41.9 14.7 42.6 14.1 42.9L5.4 47C5.3 47 5.1 47 5.1 46.9 5 46.8 5 46.6 5.1 46.5L10.3 40.9C10.4 40.7 10.7 40.7 10.9 40.7 10.9 40.7 11 40.7 11 40.7L11 40.7C11.4 40.8 11.7 40.7 12 40.4 12.4 40 12.4 39.1 11.9 38.6 11.5 38.1 10.7 38 10.3 38.5 10 38.7 9.9 39 9.9 39.4L9.9 39.5 9.9 39.6V39.6C10 39.9 9.9 40.1 9.7 40.3L4.4 46C4.3 46 4.2 46.1 4.1 46 4 45.9 3.9 45.8 4 45.6L7.8 35.9C8.1 35.2 8.7 34.7 9.3 34.6 11.3 34.4 13.8 34 16.8 33.4Z" class="a"></path><path d="M42.8 5.5L42.7 5.8C41.6 8 33.6 23.8 19.9 30.1 26 14.3 42.3 5.8 42.8 5.5Z" class="a"></path><path d="M17.3 40.6C17.7 37.9 18.3 35.3 19.2 32.9 34.2 25.4 42.2 10.5 43.3 8.4L43.4 8.1C43.4 8.1 34.8 31.3 17.3 40.6Z" class="a"></path><path d="M40.4 4.6L40.9 4.4 40.2 4.7C37.1 6.6 23.9 14.9 17.2 30.9 15 31.8 12.6 32.4 10.1 32.5 18.1 15 37.1 6 40.4 4.6V4.6Z" class="a"></path></svg>